<mxfile host="app.diagrams.net" modified="2024-01-26T16:04:40.467Z" agent="Mozilla/5.0 (Windows NT 10.0; Win64; x64) AppleWebKit/537.36 (KHTML, like Gecko) Chrome/121.0.0.0 Safari/537.36" etag="A9VylYFxN5Kr1cjnyPeK" version="23.0.2" type="device">
  <diagram name="PÃ¡gina-1" id="QyuDZeAoyNbm0Pvu70TN">
    <mxGraphModel dx="2901" dy="1098" grid="1" gridSize="10" guides="1" tooltips="1" connect="1" arrows="1" fold="1" page="1" pageScale="1" pageWidth="827" pageHeight="1169" math="0" shadow="0">
      <root>
        <mxCell id="0" />
        <mxCell id="1" parent="0" />
        <mxCell id="L6SBvmUNMrdH3GEFA7w_-1" value="AWS Cloud" style="points=[[0,0],[0.25,0],[0.5,0],[0.75,0],[1,0],[1,0.25],[1,0.5],[1,0.75],[1,1],[0.75,1],[0.5,1],[0.25,1],[0,1],[0,0.75],[0,0.5],[0,0.25]];outlineConnect=0;gradientColor=none;html=1;whiteSpace=wrap;fontSize=12;fontStyle=0;container=1;pointerEvents=0;collapsible=0;recursiveResize=0;shape=mxgraph.aws4.group;grIcon=mxgraph.aws4.group_aws_cloud_alt;strokeColor=#232F3E;fillColor=none;verticalAlign=top;align=left;spacingLeft=30;fontColor=#232F3E;dashed=0;" parent="1" vertex="1">
          <mxGeometry x="-480" y="40" width="2840" height="2240" as="geometry" />
        </mxCell>
        <mxCell id="L6SBvmUNMrdH3GEFA7w_-42" value="" style="rounded=0;whiteSpace=wrap;html=1;" parent="L6SBvmUNMrdH3GEFA7w_-1" vertex="1">
          <mxGeometry x="560" y="160" width="1040" height="840" as="geometry" />
        </mxCell>
        <mxCell id="L6SBvmUNMrdH3GEFA7w_-74" value="" style="rounded=0;whiteSpace=wrap;html=1;fillColor=#f5f5f5;fontColor=#333333;strokeColor=#666666;" parent="L6SBvmUNMrdH3GEFA7w_-1" vertex="1">
          <mxGeometry x="962.5" y="250" width="245.5" height="670" as="geometry" />
        </mxCell>
        <mxCell id="L6SBvmUNMrdH3GEFA7w_-46" value="" style="rounded=0;whiteSpace=wrap;html=1;" parent="L6SBvmUNMrdH3GEFA7w_-1" vertex="1">
          <mxGeometry x="560" y="1120" width="1520" height="920" as="geometry" />
        </mxCell>
        <mxCell id="L6SBvmUNMrdH3GEFA7w_-37" value="" style="rounded=0;whiteSpace=wrap;html=1;fillColor=#dae8fc;strokeColor=#6c8ebf;" parent="L6SBvmUNMrdH3GEFA7w_-1" vertex="1">
          <mxGeometry x="1000" y="1240" width="1030" height="720" as="geometry" />
        </mxCell>
        <mxCell id="L6SBvmUNMrdH3GEFA7w_-32" value="" style="rounded=0;whiteSpace=wrap;html=1;fillColor=#f5f5f5;fontColor=#333333;strokeColor=#666666;" parent="L6SBvmUNMrdH3GEFA7w_-1" vertex="1">
          <mxGeometry x="580" y="1400" width="360" height="440" as="geometry" />
        </mxCell>
        <mxCell id="L6SBvmUNMrdH3GEFA7w_-2" value="Amazon Elastic Kubernetes Service (EKS)" style="sketch=0;points=[[0,0,0],[0.25,0,0],[0.5,0,0],[0.75,0,0],[1,0,0],[0,1,0],[0.25,1,0],[0.5,1,0],[0.75,1,0],[1,1,0],[0,0.25,0],[0,0.5,0],[0,0.75,0],[1,0.25,0],[1,0.5,0],[1,0.75,0]];outlineConnect=0;fontColor=#232F3E;fillColor=#ED7100;strokeColor=#ffffff;dashed=0;verticalLabelPosition=bottom;verticalAlign=top;align=center;html=1;fontSize=12;fontStyle=0;aspect=fixed;shape=mxgraph.aws4.resourceIcon;resIcon=mxgraph.aws4.eks;" parent="L6SBvmUNMrdH3GEFA7w_-1" vertex="1">
          <mxGeometry x="1330" y="1100" width="40" height="40" as="geometry" />
        </mxCell>
        <mxCell id="L6SBvmUNMrdH3GEFA7w_-25" value="Control plane" style="aspect=fixed;sketch=0;html=1;dashed=0;whitespace=wrap;fillColor=#2875E2;strokeColor=#ffffff;points=[[0.005,0.63,0],[0.1,0.2,0],[0.9,0.2,0],[0.5,0,0],[0.995,0.63,0],[0.72,0.99,0],[0.5,1,0],[0.28,0.99,0]];shape=mxgraph.kubernetes.icon2;kubernetesLabel=1;prIcon=control_plane;labelPosition=center;verticalLabelPosition=bottom;align=center;verticalAlign=top;" parent="L6SBvmUNMrdH3GEFA7w_-1" vertex="1">
          <mxGeometry x="750" y="1370" width="50" height="48" as="geometry" />
        </mxCell>
        <mxCell id="L6SBvmUNMrdH3GEFA7w_-33" value="" style="rounded=0;whiteSpace=wrap;html=1;" parent="L6SBvmUNMrdH3GEFA7w_-1" vertex="1">
          <mxGeometry x="1040" y="1400" width="201" height="440" as="geometry" />
        </mxCell>
        <mxCell id="L6SBvmUNMrdH3GEFA7w_-27" value="Node" style="aspect=fixed;sketch=0;html=1;dashed=0;whitespace=wrap;fillColor=#2875E2;strokeColor=#ffffff;points=[[0.005,0.63,0],[0.1,0.2,0],[0.9,0.2,0],[0.5,0,0],[0.995,0.63,0],[0.72,0.99,0],[0.5,1,0],[0.28,0.99,0]];shape=mxgraph.kubernetes.icon2;prIcon=node;labelPosition=center;verticalLabelPosition=bottom;align=center;verticalAlign=top;" parent="L6SBvmUNMrdH3GEFA7w_-1" vertex="1">
          <mxGeometry x="1115.5" y="1370" width="50" height="48" as="geometry" />
        </mxCell>
        <mxCell id="L6SBvmUNMrdH3GEFA7w_-43" value="HorizontalPodAutoscaler&lt;br&gt;(name: rms-bff)&lt;br&gt;&lt;div&gt;minReplicas: 1&lt;/div&gt;&lt;div&gt;maxReplicas: 10&lt;/div&gt;" style="aspect=fixed;sketch=0;html=1;dashed=0;whitespace=wrap;fillColor=#2875E2;strokeColor=#ffffff;points=[[0.005,0.63,0],[0.1,0.2,0],[0.9,0.2,0],[0.5,0,0],[0.995,0.63,0],[0.72,0.99,0],[0.5,1,0],[0.28,0.99,0]];shape=mxgraph.kubernetes.icon2;kubernetesLabel=1;prIcon=hpa;labelPosition=center;verticalLabelPosition=bottom;align=center;verticalAlign=top;" parent="L6SBvmUNMrdH3GEFA7w_-1" vertex="1">
          <mxGeometry x="730" y="720" width="50" height="48" as="geometry" />
        </mxCell>
        <mxCell id="L6SBvmUNMrdH3GEFA7w_-44" value="ConfigMap&lt;br&gt;(name: rms-bff-config)" style="aspect=fixed;sketch=0;html=1;dashed=0;whitespace=wrap;fillColor=#2875E2;strokeColor=#ffffff;points=[[0.005,0.63,0],[0.1,0.2,0],[0.9,0.2,0],[0.5,0,0],[0.995,0.63,0],[0.72,0.99,0],[0.5,1,0],[0.28,0.99,0]];shape=mxgraph.kubernetes.icon2;prIcon=cm;labelPosition=center;verticalLabelPosition=bottom;align=center;verticalAlign=top;" parent="L6SBvmUNMrdH3GEFA7w_-1" vertex="1">
          <mxGeometry x="730" y="380" width="50" height="48" as="geometry" />
        </mxCell>
        <mxCell id="L6SBvmUNMrdH3GEFA7w_-78" value="" style="rounded=0;whiteSpace=wrap;html=1;fillColor=#dae8fc;strokeColor=#6c8ebf;" parent="L6SBvmUNMrdH3GEFA7w_-1" vertex="1">
          <mxGeometry x="981.13" y="350" width="207.75" height="470" as="geometry" />
        </mxCell>
        <mxCell id="L6SBvmUNMrdH3GEFA7w_-83" value="Region&amp;nbsp;- US East (Virginia) - us-east-1" style="points=[[0,0],[0.25,0],[0.5,0],[0.75,0],[1,0],[1,0.25],[1,0.5],[1,0.75],[1,1],[0.75,1],[0.5,1],[0.25,1],[0,1],[0,0.75],[0,0.5],[0,0.25]];outlineConnect=0;gradientColor=none;html=1;whiteSpace=wrap;fontSize=12;fontStyle=0;container=1;pointerEvents=0;collapsible=0;recursiveResize=0;shape=mxgraph.aws4.group;grIcon=mxgraph.aws4.group_region;strokeColor=#00A4A6;fillColor=none;verticalAlign=top;align=left;spacingLeft=30;fontColor=#147EBA;dashed=1;" parent="L6SBvmUNMrdH3GEFA7w_-1" vertex="1">
          <mxGeometry x="80" y="90" width="2680" height="2070" as="geometry" />
        </mxCell>
        <mxCell id="L6SBvmUNMrdH3GEFA7w_-85" value="AWS Account" style="points=[[0,0],[0.25,0],[0.5,0],[0.75,0],[1,0],[1,0.25],[1,0.5],[1,0.75],[1,1],[0.75,1],[0.5,1],[0.25,1],[0,1],[0,0.75],[0,0.5],[0,0.25]];outlineConnect=0;gradientColor=none;html=1;whiteSpace=wrap;fontSize=12;fontStyle=0;container=1;pointerEvents=0;collapsible=0;recursiveResize=0;shape=mxgraph.aws4.group;grIcon=mxgraph.aws4.group_account;strokeColor=#CD2264;fillColor=none;verticalAlign=top;align=left;spacingLeft=30;fontColor=#CD2264;dashed=0;" parent="L6SBvmUNMrdH3GEFA7w_-1" vertex="1">
          <mxGeometry x="40" y="49" width="2760" height="2151" as="geometry" />
        </mxCell>
        <mxCell id="L6SBvmUNMrdH3GEFA7w_-34" value="" style="rounded=0;whiteSpace=wrap;html=1;" parent="L6SBvmUNMrdH3GEFA7w_-85" vertex="1">
          <mxGeometry x="1000" y="1271.01" width="281.5" height="600" as="geometry" />
        </mxCell>
        <mxCell id="L6SBvmUNMrdH3GEFA7w_-4" value="Amazon Elastic Load Balancer (ELB)" style="sketch=0;points=[[0,0,0],[0.25,0,0],[0.5,0,0],[0.75,0,0],[1,0,0],[0,1,0],[0.25,1,0],[0.5,1,0],[0.75,1,0],[1,1,0],[0,0.25,0],[0,0.5,0],[0,0.75,0],[1,0.25,0],[1,0.5,0],[1,0.75,0]];outlineConnect=0;fontColor=#232F3E;fillColor=#8C4FFF;strokeColor=#ffffff;dashed=0;verticalLabelPosition=bottom;verticalAlign=top;align=center;html=1;fontSize=12;fontStyle=0;aspect=fixed;shape=mxgraph.aws4.resourceIcon;resIcon=mxgraph.aws4.elastic_load_balancing;" parent="L6SBvmUNMrdH3GEFA7w_-85" vertex="1">
          <mxGeometry x="240" y="511" width="40" height="40" as="geometry" />
        </mxCell>
        <mxCell id="L6SBvmUNMrdH3GEFA7w_-61" value="kubectl" style="sketch=0;outlineConnect=0;fontColor=#232F3E;gradientColor=none;fillColor=#ED7100;strokeColor=none;dashed=0;verticalLabelPosition=bottom;verticalAlign=top;align=center;html=1;fontSize=12;fontStyle=0;aspect=fixed;pointerEvents=1;shape=mxgraph.aws4.ecs_copilot_cli;" parent="L6SBvmUNMrdH3GEFA7w_-85" vertex="1">
          <mxGeometry x="240" y="1559.6699999999998" width="40" height="36.67" as="geometry" />
        </mxCell>
        <mxCell id="L6SBvmUNMrdH3GEFA7w_-28" value="Amazon RDS para PostgreSQL" style="sketch=0;points=[[0,0,0],[0.25,0,0],[0.5,0,0],[0.75,0,0],[1,0,0],[0,1,0],[0.25,1,0],[0.5,1,0],[0.75,1,0],[1,1,0],[0,0.25,0],[0,0.5,0],[0,0.75,0],[1,0.25,0],[1,0.5,0],[1,0.75,0]];outlineConnect=0;fontColor=#232F3E;fillColor=#C925D1;strokeColor=#ffffff;dashed=0;verticalLabelPosition=bottom;verticalAlign=top;align=center;html=1;fontSize=12;fontStyle=0;aspect=fixed;shape=mxgraph.aws4.resourceIcon;resIcon=mxgraph.aws4.rds;" parent="L6SBvmUNMrdH3GEFA7w_-85" vertex="1">
          <mxGeometry x="2000" y="511" width="40" height="40" as="geometry" />
        </mxCell>
        <mxCell id="L6SBvmUNMrdH3GEFA7w_-79" value="Namespace&#xa;(name: rms)" style="aspect=fixed;sketch=0;html=1;dashed=0;whitespace=wrap;fillColor=#2875E2;strokeColor=#ffffff;points=[[0.005,0.63,0],[0.1,0.2,0],[0.9,0.2,0],[0.5,0,0],[0.995,0.63,0],[0.72,0.99,0],[0.5,1,0],[0.28,0.99,0]];shape=mxgraph.kubernetes.icon2;kubernetesLabel=1;prIcon=ns;labelPosition=center;verticalLabelPosition=bottom;align=center;verticalAlign=top;" parent="L6SBvmUNMrdH3GEFA7w_-85" vertex="1">
          <mxGeometry x="1020" y="81" width="50" height="48" as="geometry" />
        </mxCell>
        <mxCell id="L6SBvmUNMrdH3GEFA7w_-81" value="ReplicaSet&lt;br&gt;replicas: 3" style="aspect=fixed;sketch=0;html=1;dashed=0;whitespace=wrap;fillColor=#2875E2;strokeColor=#ffffff;points=[[0.005,0.63,0],[0.1,0.2,0],[0.9,0.2,0],[0.5,0,0],[0.995,0.63,0],[0.72,0.99,0],[0.5,1,0],[0.28,0.99,0]];shape=mxgraph.kubernetes.icon2;kubernetesLabel=1;prIcon=rs;labelPosition=center;verticalLabelPosition=bottom;align=center;verticalAlign=top;" parent="L6SBvmUNMrdH3GEFA7w_-85" vertex="1">
          <mxGeometry x="1020" y="271" width="50" height="48" as="geometry" />
        </mxCell>
        <mxCell id="L6SBvmUNMrdH3GEFA7w_-16" value="Cloud controller manager" style="aspect=fixed;sketch=0;html=1;dashed=0;whitespace=wrap;fillColor=#2875E2;strokeColor=#ffffff;points=[[0.005,0.63,0],[0.1,0.2,0],[0.9,0.2,0],[0.5,0,0],[0.995,0.63,0],[0.72,0.99,0],[0.5,1,0],[0.28,0.99,0]];shape=mxgraph.kubernetes.icon2;kubernetesLabel=1;prIcon=c_c_m;labelPosition=center;verticalLabelPosition=bottom;align=center;verticalAlign=top;" parent="L6SBvmUNMrdH3GEFA7w_-85" vertex="1">
          <mxGeometry x="829" y="1411" width="50" height="48" as="geometry" />
        </mxCell>
        <mxCell id="L6SBvmUNMrdH3GEFA7w_-17" value="API server" style="aspect=fixed;sketch=0;html=1;dashed=0;whitespace=wrap;fillColor=#2875E2;strokeColor=#ffffff;points=[[0.005,0.63,0],[0.1,0.2,0],[0.9,0.2,0],[0.5,0,0],[0.995,0.63,0],[0.72,0.99,0],[0.5,1,0],[0.28,0.99,0]];shape=mxgraph.kubernetes.icon2;kubernetesLabel=1;prIcon=api;labelPosition=center;verticalLabelPosition=bottom;align=center;verticalAlign=top;" parent="L6SBvmUNMrdH3GEFA7w_-85" vertex="1">
          <mxGeometry x="829" y="1547.01" width="50" height="48" as="geometry" />
        </mxCell>
        <mxCell id="L6SBvmUNMrdH3GEFA7w_-53" value="" style="edgeStyle=orthogonalEdgeStyle;rounded=0;orthogonalLoop=1;jettySize=auto;html=1;" parent="L6SBvmUNMrdH3GEFA7w_-85" source="L6SBvmUNMrdH3GEFA7w_-17" target="L6SBvmUNMrdH3GEFA7w_-16" edge="1">
          <mxGeometry relative="1" as="geometry" />
        </mxCell>
        <mxCell id="L6SBvmUNMrdH3GEFA7w_-62" style="edgeStyle=orthogonalEdgeStyle;rounded=0;orthogonalLoop=1;jettySize=auto;html=1;entryX=0.005;entryY=0.63;entryDx=0;entryDy=0;entryPerimeter=0;" parent="L6SBvmUNMrdH3GEFA7w_-85" source="L6SBvmUNMrdH3GEFA7w_-61" target="L6SBvmUNMrdH3GEFA7w_-17" edge="1">
          <mxGeometry relative="1" as="geometry" />
        </mxCell>
        <mxCell id="L6SBvmUNMrdH3GEFA7w_-24" value="Scheduler" style="aspect=fixed;sketch=0;html=1;dashed=0;whitespace=wrap;fillColor=#2875E2;strokeColor=#ffffff;points=[[0.005,0.63,0],[0.1,0.2,0],[0.9,0.2,0],[0.5,0,0],[0.995,0.63,0],[0.72,0.99,0],[0.5,1,0],[0.28,0.99,0]];shape=mxgraph.kubernetes.icon2;kubernetesLabel=1;prIcon=sched;labelPosition=center;verticalLabelPosition=bottom;align=center;verticalAlign=top;" parent="L6SBvmUNMrdH3GEFA7w_-85" vertex="1">
          <mxGeometry x="829" y="1681" width="50" height="48" as="geometry" />
        </mxCell>
        <mxCell id="L6SBvmUNMrdH3GEFA7w_-54" value="" style="edgeStyle=orthogonalEdgeStyle;rounded=0;orthogonalLoop=1;jettySize=auto;html=1;" parent="L6SBvmUNMrdH3GEFA7w_-85" source="L6SBvmUNMrdH3GEFA7w_-17" target="L6SBvmUNMrdH3GEFA7w_-24" edge="1">
          <mxGeometry relative="1" as="geometry" />
        </mxCell>
        <mxCell id="L6SBvmUNMrdH3GEFA7w_-18" value="Controller manager" style="aspect=fixed;sketch=0;html=1;dashed=0;whitespace=wrap;fillColor=#2875E2;strokeColor=#ffffff;points=[[0.005,0.63,0],[0.1,0.2,0],[0.9,0.2,0],[0.5,0,0],[0.995,0.63,0],[0.72,0.99,0],[0.5,1,0],[0.28,0.99,0]];shape=mxgraph.kubernetes.icon2;kubernetesLabel=1;prIcon=c_m;labelPosition=center;verticalLabelPosition=bottom;align=center;verticalAlign=top;" parent="L6SBvmUNMrdH3GEFA7w_-85" vertex="1">
          <mxGeometry x="590" y="1411" width="50" height="48" as="geometry" />
        </mxCell>
        <mxCell id="L6SBvmUNMrdH3GEFA7w_-57" value="" style="endArrow=classic;html=1;rounded=0;exitX=0.1;exitY=0.2;exitDx=0;exitDy=0;exitPerimeter=0;entryX=0.72;entryY=0.99;entryDx=0;entryDy=0;entryPerimeter=0;" parent="L6SBvmUNMrdH3GEFA7w_-85" source="L6SBvmUNMrdH3GEFA7w_-17" target="L6SBvmUNMrdH3GEFA7w_-18" edge="1">
          <mxGeometry width="50" height="50" relative="1" as="geometry">
            <mxPoint x="430" y="1601" as="sourcePoint" />
            <mxPoint x="480" y="1551" as="targetPoint" />
          </mxGeometry>
        </mxCell>
        <mxCell id="L6SBvmUNMrdH3GEFA7w_-150" value="" style="rounded=0;whiteSpace=wrap;html=1;" parent="L6SBvmUNMrdH3GEFA7w_-85" vertex="1">
          <mxGeometry x="1035.75" y="1361" width="214.25" height="479" as="geometry" />
        </mxCell>
        <mxCell id="L6SBvmUNMrdH3GEFA7w_-86" value="" style="rounded=0;whiteSpace=wrap;html=1;fillColor=#f5f5f5;fontColor=#333333;strokeColor=#666666;" parent="L6SBvmUNMrdH3GEFA7w_-85" vertex="1">
          <mxGeometry x="1085.75" y="1425" width="120" height="70" as="geometry" />
        </mxCell>
        <mxCell id="L6SBvmUNMrdH3GEFA7w_-41" value="rms-bff:latest" style="shape=image;html=1;verticalAlign=top;verticalLabelPosition=bottom;labelBackgroundColor=#ffffff;imageAspect=0;aspect=fixed;image=https://cdn1.iconfinder.com/data/icons/unicons-line-vol-3/24/docker-128.png" parent="L6SBvmUNMrdH3GEFA7w_-85" vertex="1">
          <mxGeometry x="1126.75" y="1433" width="38" height="38" as="geometry" />
        </mxCell>
        <mxCell id="L6SBvmUNMrdH3GEFA7w_-108" value="" style="rounded=0;whiteSpace=wrap;html=1;fillColor=#f5f5f5;fontColor=#333333;strokeColor=#666666;" parent="L6SBvmUNMrdH3GEFA7w_-85" vertex="1">
          <mxGeometry x="1085.75" y="1541" width="120" height="70" as="geometry" />
        </mxCell>
        <mxCell id="L6SBvmUNMrdH3GEFA7w_-109" value="" style="aspect=fixed;sketch=0;html=1;dashed=0;whitespace=wrap;fillColor=#2875E2;strokeColor=#ffffff;points=[[0.005,0.63,0],[0.1,0.2,0],[0.9,0.2,0],[0.5,0,0],[0.995,0.63,0],[0.72,0.99,0],[0.5,1,0],[0.28,0.99,0]];shape=mxgraph.kubernetes.icon2;kubernetesLabel=1;prIcon=pod;labelPosition=center;verticalLabelPosition=bottom;align=center;verticalAlign=top;" parent="L6SBvmUNMrdH3GEFA7w_-85" vertex="1">
          <mxGeometry x="1064.25" y="1511" width="50" height="48" as="geometry" />
        </mxCell>
        <mxCell id="L6SBvmUNMrdH3GEFA7w_-110" value="rms-bff:latest" style="shape=image;html=1;verticalAlign=top;verticalLabelPosition=bottom;labelBackgroundColor=#ffffff;imageAspect=0;aspect=fixed;image=https://cdn1.iconfinder.com/data/icons/unicons-line-vol-3/24/docker-128.png" parent="L6SBvmUNMrdH3GEFA7w_-85" vertex="1">
          <mxGeometry x="1126.75" y="1549" width="38" height="38" as="geometry" />
        </mxCell>
        <mxCell id="L6SBvmUNMrdH3GEFA7w_-111" value="" style="rounded=0;whiteSpace=wrap;html=1;fillColor=#f5f5f5;fontColor=#333333;strokeColor=#666666;" parent="L6SBvmUNMrdH3GEFA7w_-85" vertex="1">
          <mxGeometry x="1085.75" y="1659" width="120" height="70" as="geometry" />
        </mxCell>
        <mxCell id="L6SBvmUNMrdH3GEFA7w_-113" value="rms-bff:latest" style="shape=image;html=1;verticalAlign=top;verticalLabelPosition=bottom;labelBackgroundColor=#ffffff;imageAspect=0;aspect=fixed;image=https://cdn1.iconfinder.com/data/icons/unicons-line-vol-3/24/docker-128.png" parent="L6SBvmUNMrdH3GEFA7w_-85" vertex="1">
          <mxGeometry x="1126.75" y="1667" width="38" height="38" as="geometry" />
        </mxCell>
        <mxCell id="L6SBvmUNMrdH3GEFA7w_-112" value="" style="aspect=fixed;sketch=0;html=1;dashed=0;whitespace=wrap;fillColor=#2875E2;strokeColor=#ffffff;points=[[0.005,0.63,0],[0.1,0.2,0],[0.9,0.2,0],[0.5,0,0],[0.995,0.63,0],[0.72,0.99,0],[0.5,1,0],[0.28,0.99,0]];shape=mxgraph.kubernetes.icon2;kubernetesLabel=1;prIcon=pod;labelPosition=center;verticalLabelPosition=bottom;align=center;verticalAlign=top;" parent="L6SBvmUNMrdH3GEFA7w_-85" vertex="1">
          <mxGeometry x="1064.25" y="1629" width="50" height="48" as="geometry" />
        </mxCell>
        <mxCell id="L6SBvmUNMrdH3GEFA7w_-35" value="EC2 Instance" style="sketch=0;points=[[0,0,0],[0.25,0,0],[0.5,0,0],[0.75,0,0],[1,0,0],[0,1,0],[0.25,1,0],[0.5,1,0],[0.75,1,0],[1,1,0],[0,0.25,0],[0,0.5,0],[0,0.75,0],[1,0.25,0],[1,0.5,0],[1,0.75,0]];outlineConnect=0;fontColor=#232F3E;fillColor=#ED7100;strokeColor=#ffffff;dashed=0;verticalLabelPosition=bottom;verticalAlign=top;align=center;html=1;fontSize=12;fontStyle=0;aspect=fixed;shape=mxgraph.aws4.resourceIcon;resIcon=mxgraph.aws4.ec2;" parent="L6SBvmUNMrdH3GEFA7w_-85" vertex="1">
          <mxGeometry x="1124.75" y="1251" width="42" height="42" as="geometry" />
        </mxCell>
        <mxCell id="L6SBvmUNMrdH3GEFA7w_-47" value="" style="aspect=fixed;sketch=0;html=1;dashed=0;whitespace=wrap;fillColor=#2875E2;strokeColor=#ffffff;points=[[0.005,0.63,0],[0.1,0.2,0],[0.9,0.2,0],[0.5,0,0],[0.995,0.63,0],[0.72,0.99,0],[0.5,1,0],[0.28,0.99,0]];shape=mxgraph.kubernetes.icon2;kubernetesLabel=1;prIcon=pod;labelPosition=center;verticalLabelPosition=bottom;align=center;verticalAlign=top;" parent="L6SBvmUNMrdH3GEFA7w_-85" vertex="1">
          <mxGeometry x="1064.25" y="1395" width="50" height="48" as="geometry" />
        </mxCell>
        <mxCell id="L6SBvmUNMrdH3GEFA7w_-29" value="Amazon EC2 Auto Scaling" style="sketch=0;points=[[0,0,0],[0.25,0,0],[0.5,0,0],[0.75,0,0],[1,0,0],[0,1,0],[0.25,1,0],[0.5,1,0],[0.75,1,0],[1,1,0],[0,0.25,0],[0,0.5,0],[0,0.75,0],[1,0.25,0],[1,0.5,0],[1,0.75,0]];outlineConnect=0;fontColor=#232F3E;fillColor=#ED7100;strokeColor=#ffffff;dashed=0;verticalLabelPosition=bottom;verticalAlign=top;align=center;html=1;fontSize=12;fontStyle=0;aspect=fixed;shape=mxgraph.aws4.resourceIcon;resIcon=mxgraph.aws4.auto_scaling2;" parent="L6SBvmUNMrdH3GEFA7w_-85" vertex="1">
          <mxGeometry x="1456" y="1171" width="38" height="38" as="geometry" />
        </mxCell>
        <mxCell id="L6SBvmUNMrdH3GEFA7w_-146" value="&lt;div&gt;Container Registry:&lt;/div&gt;&lt;div&gt;Docker Hub&lt;/div&gt;" style="shape=image;html=1;verticalAlign=top;verticalLabelPosition=bottom;labelBackgroundColor=#ffffff;imageAspect=0;aspect=fixed;image=https://cdn0.iconfinder.com/data/icons/social-media-2127/48/social_media_social_media_logo_docker-128.png" parent="L6SBvmUNMrdH3GEFA7w_-85" vertex="1">
          <mxGeometry x="2260" y="1836" width="110" height="110" as="geometry" />
        </mxCell>
        <mxCell id="L6SBvmUNMrdH3GEFA7w_-151" value="Node" style="aspect=fixed;sketch=0;html=1;dashed=0;whitespace=wrap;fillColor=#2875E2;strokeColor=#ffffff;points=[[0.005,0.63,0],[0.1,0.2,0],[0.9,0.2,0],[0.5,0,0],[0.995,0.63,0],[0.72,0.99,0],[0.5,1,0],[0.28,0.99,0]];shape=mxgraph.kubernetes.icon2;prIcon=node;labelPosition=center;verticalLabelPosition=bottom;align=center;verticalAlign=top;" parent="L6SBvmUNMrdH3GEFA7w_-85" vertex="1">
          <mxGeometry x="1115.75" y="1331" width="50" height="48" as="geometry" />
        </mxCell>
        <mxCell id="L6SBvmUNMrdH3GEFA7w_-15" value="" style="aspect=fixed;sketch=0;html=1;dashed=0;whitespace=wrap;fillColor=#2875E2;strokeColor=#ffffff;points=[[0.005,0.63,0],[0.1,0.2,0],[0.9,0.2,0],[0.5,0,0],[0.995,0.63,0],[0.72,0.99,0],[0.5,1,0],[0.28,0.99,0]];shape=mxgraph.kubernetes.icon2;kubernetesLabel=1;prIcon=kubelet" parent="L6SBvmUNMrdH3GEFA7w_-85" vertex="1">
          <mxGeometry x="1050" y="1771" width="50" height="48" as="geometry" />
        </mxCell>
        <mxCell id="L6SBvmUNMrdH3GEFA7w_-36" value="" style="aspect=fixed;sketch=0;html=1;dashed=0;whitespace=wrap;fillColor=#2875E2;strokeColor=#ffffff;points=[[0.005,0.63,0],[0.1,0.2,0],[0.9,0.2,0],[0.5,0,0],[0.995,0.63,0],[0.72,0.99,0],[0.5,1,0],[0.28,0.99,0]];shape=mxgraph.kubernetes.icon2;kubernetesLabel=1;prIcon=k_proxy" parent="L6SBvmUNMrdH3GEFA7w_-85" vertex="1">
          <mxGeometry x="1114.25" y="1771" width="50" height="48" as="geometry" />
        </mxCell>
        <mxCell id="L6SBvmUNMrdH3GEFA7w_-48" value="containerd" style="shape=image;html=1;verticalAlign=top;verticalLabelPosition=bottom;labelBackgroundColor=#ffffff;imageAspect=0;aspect=fixed;image=https://cdn1.iconfinder.com/data/icons/unicons-line-vol-3/24/docker-128.png" parent="L6SBvmUNMrdH3GEFA7w_-85" vertex="1">
          <mxGeometry x="1180" y="1775" width="40" height="40" as="geometry" />
        </mxCell>
        <mxCell id="L6SBvmUNMrdH3GEFA7w_-115" style="edgeStyle=orthogonalEdgeStyle;rounded=0;orthogonalLoop=1;jettySize=auto;html=1;exitX=0.995;exitY=0.63;exitDx=0;exitDy=0;exitPerimeter=0;entryX=0.5;entryY=1;entryDx=0;entryDy=0;entryPerimeter=0;" parent="L6SBvmUNMrdH3GEFA7w_-85" source="L6SBvmUNMrdH3GEFA7w_-17" target="L6SBvmUNMrdH3GEFA7w_-15" edge="1">
          <mxGeometry relative="1" as="geometry">
            <Array as="points">
              <mxPoint x="930" y="1577" />
              <mxPoint x="930" y="1951" />
              <mxPoint x="1075" y="1951" />
            </Array>
          </mxGeometry>
        </mxCell>
        <mxCell id="L6SBvmUNMrdH3GEFA7w_-149" style="edgeStyle=orthogonalEdgeStyle;rounded=0;orthogonalLoop=1;jettySize=auto;html=1;entryX=0;entryY=0.5;entryDx=0;entryDy=0;fillColor=#fff2cc;strokeColor=#d6b656;" parent="L6SBvmUNMrdH3GEFA7w_-85" source="L6SBvmUNMrdH3GEFA7w_-48" target="L6SBvmUNMrdH3GEFA7w_-146" edge="1">
          <mxGeometry relative="1" as="geometry">
            <Array as="points">
              <mxPoint x="1200" y="1891" />
              <mxPoint x="2240" y="1891" />
            </Array>
          </mxGeometry>
        </mxCell>
        <mxCell id="L6SBvmUNMrdH3GEFA7w_-156" style="edgeStyle=orthogonalEdgeStyle;rounded=0;orthogonalLoop=1;jettySize=auto;html=1;exitX=0.995;exitY=0.63;exitDx=0;exitDy=0;exitPerimeter=0;entryX=0.5;entryY=1;entryDx=0;entryDy=0;entryPerimeter=0;" parent="L6SBvmUNMrdH3GEFA7w_-85" source="L6SBvmUNMrdH3GEFA7w_-17" target="L6SBvmUNMrdH3GEFA7w_-36" edge="1">
          <mxGeometry relative="1" as="geometry">
            <Array as="points">
              <mxPoint x="930" y="1577" />
              <mxPoint x="930" y="1951" />
              <mxPoint x="1139" y="1951" />
            </Array>
          </mxGeometry>
        </mxCell>
        <mxCell id="94TOJgzLUkNtwb4Dzyfh-1" value="KUBERNETES LOGICAL ARCHITECTURE" style="text;html=1;strokeColor=none;fillColor=none;align=left;verticalAlign=middle;whiteSpace=wrap;rounded=0;fontSize=16;fontFamily=Lucida Console;fontStyle=1" parent="L6SBvmUNMrdH3GEFA7w_-85" vertex="1">
          <mxGeometry x="80" y="111" width="360" height="39" as="geometry" />
        </mxCell>
        <mxCell id="94TOJgzLUkNtwb4Dzyfh-2" value="KUBERNETES PHYSICAL ARCHITECTURE" style="text;html=1;strokeColor=none;fillColor=none;align=left;verticalAlign=middle;whiteSpace=wrap;rounded=0;fontSize=16;fontFamily=Lucida Console;fontStyle=1" parent="L6SBvmUNMrdH3GEFA7w_-85" vertex="1">
          <mxGeometry x="80" y="1071" width="360" height="39" as="geometry" />
        </mxCell>
        <mxCell id="94TOJgzLUkNtwb4Dzyfh-3" value="Cloud provider API" style="html=1;verticalLabelPosition=bottom;align=center;labelBackgroundColor=#ffffff;verticalAlign=top;strokeWidth=2;strokeColor=#0080F0;shadow=0;dashed=0;shape=mxgraph.ios7.icons.cloud;labelPosition=center;" parent="L6SBvmUNMrdH3GEFA7w_-85" vertex="1">
          <mxGeometry x="829" y="1231" width="50" height="30" as="geometry" />
        </mxCell>
        <mxCell id="94TOJgzLUkNtwb4Dzyfh-4" style="edgeStyle=orthogonalEdgeStyle;rounded=0;orthogonalLoop=1;jettySize=auto;html=1;exitX=0.5;exitY=0;exitDx=0;exitDy=0;exitPerimeter=0;" parent="L6SBvmUNMrdH3GEFA7w_-85" source="L6SBvmUNMrdH3GEFA7w_-16" target="94TOJgzLUkNtwb4Dzyfh-3" edge="1">
          <mxGeometry relative="1" as="geometry" />
        </mxCell>
        <mxCell id="94TOJgzLUkNtwb4Dzyfh-6" value="ð&amp;nbsp;O ReplicaSet de nome rms-bff Ã© gerenciado pelo Deployment de mesmo nome logo acima.&lt;br&gt;&lt;br&gt;ð O ConfigMap de nome rms-bff-config armazena variÃ¡veis de ambiente da aplicaÃ§Ã£o.&lt;br&gt;&lt;br&gt;ð O Deployment pode ser escalado horizontalmente, automaticamente, para atÃ© 10 Pods pelo HorizontalPodAutoscaler com base nas mÃ©tricas fornecidas internamente pelo Metrics Server quando os Pods atingirem 50% de uso de CPU, em mÃ©dia.&lt;br&gt;&lt;br&gt;ð Optamos por utilizar o Amazon RDS como banco de dados no ambiente de produÃ§Ã£o, na AWS. Em nosso ambiente de desenvolvimento optamos por manter o banco de dados no cluster Kubernetes, no mesmo namespace da aplicaÃ§Ã£o. Em nosso ambiente de desenvolvimento local, um Deployment adicional&lt;br&gt;para o banco de dados foi criado, alÃ©m de um PersistentVolume e um&amp;nbsp;PersistentVolumeClaim do tipo&amp;nbsp;hostPath. No ambiente de desenvolvimento adicionamos tambÃ©m um ConfigMap contendo variÃ¡veis de ambiente do SGBD e um Service do tipo NodePort para permitir a conexÃ£o da aplicaÃ§Ã£o com o banco de dados." style="text;html=1;strokeColor=none;fillColor=none;align=left;verticalAlign=top;whiteSpace=wrap;rounded=0;labelPosition=center;verticalLabelPosition=middle;fontFamily=Lucida Console;" parent="L6SBvmUNMrdH3GEFA7w_-85" vertex="1">
          <mxGeometry x="1600" y="111" width="720" height="239" as="geometry" />
        </mxCell>
        <mxCell id="94TOJgzLUkNtwb4Dzyfh-7" value="ð&amp;nbsp;Os manifestos yaml do Kubernetes estÃ£o localizados na pasta /k8s no GitHub." style="text;html=1;strokeColor=none;fillColor=none;align=left;verticalAlign=bottom;whiteSpace=wrap;rounded=0;labelPosition=center;verticalLabelPosition=middle;fontFamily=Lucida Console;" parent="L6SBvmUNMrdH3GEFA7w_-85" vertex="1">
          <mxGeometry x="1600" y="711" width="720" height="239" as="geometry" />
        </mxCell>
        <mxCell id="94TOJgzLUkNtwb4Dzyfh-8" value="ð Em produÃ§Ã£o, estamos utilizando o plug-in de CNI padrÃ£o da AWS: O Amazon VPC CNI plugin for Kubernetes.&lt;br&gt;&lt;br&gt;ð Optamos por um Node Group no EC2 devido ao custo mais baixo quando comparado a opÃ§Ã£o serverless fornecida pelo AWS Fargate.&lt;br&gt;&lt;br style=&quot;border-color: var(--border-color);&quot;&gt;ð Nosso Node Group do EKS Ã© composto por 3 instÃ¢ncias EC2 do tipo t2.micro (free tier).&lt;br&gt;&lt;br&gt;ð Cada instÃ¢ncia t2.micro Ã© capaz de executar 1 Pod da nossa aplicaÃ§Ã£o, que requer 250m de CPU e 512Mi de memÃ³ria. Mais instÃ¢ncias t2.micro serÃ£o provisionadas pelo EC2 Auto Scalling quando, e se necessÃ¡rio.&amp;nbsp;&lt;br&gt;&lt;br&gt;ð Em produÃ§Ã£o estamos utilizando o&amp;nbsp;Container Runtime Interface (CRI) padrÃ£o do EKS, que Ã© o containerd.&lt;br&gt;&lt;br&gt;ð Em produÃ§Ã£o estamos utilizando uma conta Personal grÃ¡tis do Docker Hub como container Registry para armazenar e gerenciar as nossas imagens OCI do Docker.&lt;br&gt;&lt;br&gt;ð A versÃ£o do Kubernetes em produÃ§Ã£o Ã© a v1.28" style="text;html=1;strokeColor=none;fillColor=none;align=left;verticalAlign=top;whiteSpace=wrap;rounded=0;labelPosition=center;verticalLabelPosition=middle;fontFamily=Lucida Console;" parent="L6SBvmUNMrdH3GEFA7w_-85" vertex="1">
          <mxGeometry x="2080" y="1070.5" width="320" height="559.5" as="geometry" />
        </mxCell>
        <mxCell id="L6SBvmUNMrdH3GEFA7w_-94" style="edgeStyle=orthogonalEdgeStyle;rounded=0;orthogonalLoop=1;jettySize=auto;html=1;exitX=0.995;exitY=0.63;exitDx=0;exitDy=0;exitPerimeter=0;entryX=0.005;entryY=0.63;entryDx=0;entryDy=0;entryPerimeter=0;" parent="L6SBvmUNMrdH3GEFA7w_-1" source="L6SBvmUNMrdH3GEFA7w_-13" target="L6SBvmUNMrdH3GEFA7w_-70" edge="1">
          <mxGeometry relative="1" as="geometry">
            <Array as="points">
              <mxPoint x="870" y="580" />
              <mxPoint x="870" y="450" />
            </Array>
          </mxGeometry>
        </mxCell>
        <mxCell id="L6SBvmUNMrdH3GEFA7w_-95" style="edgeStyle=orthogonalEdgeStyle;rounded=0;orthogonalLoop=1;jettySize=auto;html=1;exitX=0.995;exitY=0.63;exitDx=0;exitDy=0;exitPerimeter=0;entryX=0.005;entryY=0.63;entryDx=0;entryDy=0;entryPerimeter=0;" parent="L6SBvmUNMrdH3GEFA7w_-1" source="L6SBvmUNMrdH3GEFA7w_-13" target="L6SBvmUNMrdH3GEFA7w_-69" edge="1">
          <mxGeometry relative="1" as="geometry">
            <Array as="points">
              <mxPoint x="870" y="580" />
              <mxPoint x="870" y="720" />
            </Array>
          </mxGeometry>
        </mxCell>
        <mxCell id="L6SBvmUNMrdH3GEFA7w_-13" value="Service&lt;br&gt;(name: rms-bff)&lt;br&gt;type: LoadBalancer" style="aspect=fixed;sketch=0;html=1;dashed=0;whitespace=wrap;fillColor=#2875E2;strokeColor=#ffffff;points=[[0.005,0.63,0],[0.1,0.2,0],[0.9,0.2,0],[0.5,0,0],[0.995,0.63,0],[0.72,0.99,0],[0.5,1,0],[0.28,0.99,0]];shape=mxgraph.kubernetes.icon2;kubernetesLabel=1;prIcon=svc;labelPosition=center;verticalLabelPosition=bottom;align=center;verticalAlign=top;" parent="L6SBvmUNMrdH3GEFA7w_-1" vertex="1">
          <mxGeometry x="730" y="550" width="50" height="48" as="geometry" />
        </mxCell>
        <mxCell id="L6SBvmUNMrdH3GEFA7w_-68" style="edgeStyle=orthogonalEdgeStyle;rounded=0;orthogonalLoop=1;jettySize=auto;html=1;entryX=0.005;entryY=0.63;entryDx=0;entryDy=0;entryPerimeter=0;" parent="L6SBvmUNMrdH3GEFA7w_-1" source="L6SBvmUNMrdH3GEFA7w_-4" target="L6SBvmUNMrdH3GEFA7w_-13" edge="1">
          <mxGeometry relative="1" as="geometry" />
        </mxCell>
        <mxCell id="L6SBvmUNMrdH3GEFA7w_-93" style="edgeStyle=orthogonalEdgeStyle;rounded=0;orthogonalLoop=1;jettySize=auto;html=1;exitX=0.995;exitY=0.63;exitDx=0;exitDy=0;exitPerimeter=0;entryX=0.005;entryY=0.63;entryDx=0;entryDy=0;entryPerimeter=0;" parent="L6SBvmUNMrdH3GEFA7w_-1" source="L6SBvmUNMrdH3GEFA7w_-13" target="L6SBvmUNMrdH3GEFA7w_-11" edge="1">
          <mxGeometry relative="1" as="geometry" />
        </mxCell>
        <mxCell id="L6SBvmUNMrdH3GEFA7w_-26" value="Deployment&lt;br&gt;(name: rms-bff)" style="aspect=fixed;sketch=0;html=1;dashed=0;whitespace=wrap;fillColor=#2875E2;strokeColor=#ffffff;points=[[0.005,0.63,0],[0.1,0.2,0],[0.9,0.2,0],[0.5,0,0],[0.995,0.63,0],[0.72,0.99,0],[0.5,1,0],[0.28,0.99,0]];shape=mxgraph.kubernetes.icon2;kubernetesLabel=1;prIcon=deploy;labelPosition=center;verticalLabelPosition=bottom;align=center;verticalAlign=top;" parent="L6SBvmUNMrdH3GEFA7w_-1" vertex="1">
          <mxGeometry x="1060" y="230" width="50" height="48" as="geometry" />
        </mxCell>
        <mxCell id="L6SBvmUNMrdH3GEFA7w_-116" value="" style="rounded=0;whiteSpace=wrap;html=1;" parent="L6SBvmUNMrdH3GEFA7w_-1" vertex="1">
          <mxGeometry x="1370" y="1320.01" width="281.5" height="600" as="geometry" />
        </mxCell>
        <mxCell id="L6SBvmUNMrdH3GEFA7w_-152" value="" style="rounded=0;whiteSpace=wrap;html=1;" parent="L6SBvmUNMrdH3GEFA7w_-1" vertex="1">
          <mxGeometry x="1400" y="1410" width="220" height="480" as="geometry" />
        </mxCell>
        <mxCell id="L6SBvmUNMrdH3GEFA7w_-120" value="" style="rounded=0;whiteSpace=wrap;html=1;fillColor=#f5f5f5;fontColor=#333333;strokeColor=#666666;" parent="L6SBvmUNMrdH3GEFA7w_-1" vertex="1">
          <mxGeometry x="1455.75" y="1474" width="120" height="70" as="geometry" />
        </mxCell>
        <mxCell id="L6SBvmUNMrdH3GEFA7w_-121" value="rms-bff:latest" style="shape=image;html=1;verticalAlign=top;verticalLabelPosition=bottom;labelBackgroundColor=#ffffff;imageAspect=0;aspect=fixed;image=https://cdn1.iconfinder.com/data/icons/unicons-line-vol-3/24/docker-128.png" parent="L6SBvmUNMrdH3GEFA7w_-1" vertex="1">
          <mxGeometry x="1496.75" y="1482" width="38" height="38" as="geometry" />
        </mxCell>
        <mxCell id="L6SBvmUNMrdH3GEFA7w_-122" value="" style="rounded=0;whiteSpace=wrap;html=1;fillColor=#f5f5f5;fontColor=#333333;strokeColor=#666666;" parent="L6SBvmUNMrdH3GEFA7w_-1" vertex="1">
          <mxGeometry x="1455.75" y="1590" width="120" height="70" as="geometry" />
        </mxCell>
        <mxCell id="L6SBvmUNMrdH3GEFA7w_-123" value="" style="aspect=fixed;sketch=0;html=1;dashed=0;whitespace=wrap;fillColor=#2875E2;strokeColor=#ffffff;points=[[0.005,0.63,0],[0.1,0.2,0],[0.9,0.2,0],[0.5,0,0],[0.995,0.63,0],[0.72,0.99,0],[0.5,1,0],[0.28,0.99,0]];shape=mxgraph.kubernetes.icon2;kubernetesLabel=1;prIcon=pod;labelPosition=center;verticalLabelPosition=bottom;align=center;verticalAlign=top;" parent="L6SBvmUNMrdH3GEFA7w_-1" vertex="1">
          <mxGeometry x="1434.25" y="1560" width="50" height="48" as="geometry" />
        </mxCell>
        <mxCell id="L6SBvmUNMrdH3GEFA7w_-124" value="rms-bff:latest" style="shape=image;html=1;verticalAlign=top;verticalLabelPosition=bottom;labelBackgroundColor=#ffffff;imageAspect=0;aspect=fixed;image=https://cdn1.iconfinder.com/data/icons/unicons-line-vol-3/24/docker-128.png" parent="L6SBvmUNMrdH3GEFA7w_-1" vertex="1">
          <mxGeometry x="1496.75" y="1598" width="38" height="38" as="geometry" />
        </mxCell>
        <mxCell id="L6SBvmUNMrdH3GEFA7w_-125" value="" style="rounded=0;whiteSpace=wrap;html=1;fillColor=#f5f5f5;fontColor=#333333;strokeColor=#666666;" parent="L6SBvmUNMrdH3GEFA7w_-1" vertex="1">
          <mxGeometry x="1455.75" y="1708" width="120" height="70" as="geometry" />
        </mxCell>
        <mxCell id="L6SBvmUNMrdH3GEFA7w_-126" value="rms-bff:latest" style="shape=image;html=1;verticalAlign=top;verticalLabelPosition=bottom;labelBackgroundColor=#ffffff;imageAspect=0;aspect=fixed;image=https://cdn1.iconfinder.com/data/icons/unicons-line-vol-3/24/docker-128.png" parent="L6SBvmUNMrdH3GEFA7w_-1" vertex="1">
          <mxGeometry x="1496.75" y="1716" width="38" height="38" as="geometry" />
        </mxCell>
        <mxCell id="L6SBvmUNMrdH3GEFA7w_-127" value="" style="aspect=fixed;sketch=0;html=1;dashed=0;whitespace=wrap;fillColor=#2875E2;strokeColor=#ffffff;points=[[0.005,0.63,0],[0.1,0.2,0],[0.9,0.2,0],[0.5,0,0],[0.995,0.63,0],[0.72,0.99,0],[0.5,1,0],[0.28,0.99,0]];shape=mxgraph.kubernetes.icon2;kubernetesLabel=1;prIcon=pod;labelPosition=center;verticalLabelPosition=bottom;align=center;verticalAlign=top;" parent="L6SBvmUNMrdH3GEFA7w_-1" vertex="1">
          <mxGeometry x="1434.25" y="1678" width="50" height="48" as="geometry" />
        </mxCell>
        <mxCell id="L6SBvmUNMrdH3GEFA7w_-128" value="EC2 Instance" style="sketch=0;points=[[0,0,0],[0.25,0,0],[0.5,0,0],[0.75,0,0],[1,0,0],[0,1,0],[0.25,1,0],[0.5,1,0],[0.75,1,0],[1,1,0],[0,0.25,0],[0,0.5,0],[0,0.75,0],[1,0.25,0],[1,0.5,0],[1,0.75,0]];outlineConnect=0;fontColor=#232F3E;fillColor=#ED7100;strokeColor=#ffffff;dashed=0;verticalLabelPosition=bottom;verticalAlign=top;align=center;html=1;fontSize=12;fontStyle=0;aspect=fixed;shape=mxgraph.aws4.resourceIcon;resIcon=mxgraph.aws4.ec2;" parent="L6SBvmUNMrdH3GEFA7w_-1" vertex="1">
          <mxGeometry x="1494.75" y="1300" width="42" height="42" as="geometry" />
        </mxCell>
        <mxCell id="L6SBvmUNMrdH3GEFA7w_-129" value="" style="aspect=fixed;sketch=0;html=1;dashed=0;whitespace=wrap;fillColor=#2875E2;strokeColor=#ffffff;points=[[0.005,0.63,0],[0.1,0.2,0],[0.9,0.2,0],[0.5,0,0],[0.995,0.63,0],[0.72,0.99,0],[0.5,1,0],[0.28,0.99,0]];shape=mxgraph.kubernetes.icon2;kubernetesLabel=1;prIcon=pod;labelPosition=center;verticalLabelPosition=bottom;align=center;verticalAlign=top;" parent="L6SBvmUNMrdH3GEFA7w_-1" vertex="1">
          <mxGeometry x="1434.25" y="1444" width="50" height="48" as="geometry" />
        </mxCell>
        <mxCell id="L6SBvmUNMrdH3GEFA7w_-130" value="" style="rounded=0;whiteSpace=wrap;html=1;" parent="L6SBvmUNMrdH3GEFA7w_-1" vertex="1">
          <mxGeometry x="1700" y="1320.01" width="281.5" height="600" as="geometry" />
        </mxCell>
        <mxCell id="L6SBvmUNMrdH3GEFA7w_-154" value="" style="rounded=0;whiteSpace=wrap;html=1;" parent="L6SBvmUNMrdH3GEFA7w_-1" vertex="1">
          <mxGeometry x="1730.75" y="1410" width="220" height="480" as="geometry" />
        </mxCell>
        <mxCell id="L6SBvmUNMrdH3GEFA7w_-134" value="" style="rounded=0;whiteSpace=wrap;html=1;fillColor=#f5f5f5;fontColor=#333333;strokeColor=#666666;" parent="L6SBvmUNMrdH3GEFA7w_-1" vertex="1">
          <mxGeometry x="1785.75" y="1474" width="120" height="70" as="geometry" />
        </mxCell>
        <mxCell id="L6SBvmUNMrdH3GEFA7w_-135" value="rms-bff:latest" style="shape=image;html=1;verticalAlign=top;verticalLabelPosition=bottom;labelBackgroundColor=#ffffff;imageAspect=0;aspect=fixed;image=https://cdn1.iconfinder.com/data/icons/unicons-line-vol-3/24/docker-128.png" parent="L6SBvmUNMrdH3GEFA7w_-1" vertex="1">
          <mxGeometry x="1826.75" y="1482" width="38" height="38" as="geometry" />
        </mxCell>
        <mxCell id="L6SBvmUNMrdH3GEFA7w_-136" value="" style="rounded=0;whiteSpace=wrap;html=1;fillColor=#f5f5f5;fontColor=#333333;strokeColor=#666666;" parent="L6SBvmUNMrdH3GEFA7w_-1" vertex="1">
          <mxGeometry x="1785.75" y="1590" width="120" height="70" as="geometry" />
        </mxCell>
        <mxCell id="L6SBvmUNMrdH3GEFA7w_-137" value="" style="aspect=fixed;sketch=0;html=1;dashed=0;whitespace=wrap;fillColor=#2875E2;strokeColor=#ffffff;points=[[0.005,0.63,0],[0.1,0.2,0],[0.9,0.2,0],[0.5,0,0],[0.995,0.63,0],[0.72,0.99,0],[0.5,1,0],[0.28,0.99,0]];shape=mxgraph.kubernetes.icon2;kubernetesLabel=1;prIcon=pod;labelPosition=center;verticalLabelPosition=bottom;align=center;verticalAlign=top;" parent="L6SBvmUNMrdH3GEFA7w_-1" vertex="1">
          <mxGeometry x="1764.25" y="1560" width="50" height="48" as="geometry" />
        </mxCell>
        <mxCell id="L6SBvmUNMrdH3GEFA7w_-138" value="rms-bff:latest" style="shape=image;html=1;verticalAlign=top;verticalLabelPosition=bottom;labelBackgroundColor=#ffffff;imageAspect=0;aspect=fixed;image=https://cdn1.iconfinder.com/data/icons/unicons-line-vol-3/24/docker-128.png" parent="L6SBvmUNMrdH3GEFA7w_-1" vertex="1">
          <mxGeometry x="1826.75" y="1598" width="38" height="38" as="geometry" />
        </mxCell>
        <mxCell id="L6SBvmUNMrdH3GEFA7w_-139" value="" style="rounded=0;whiteSpace=wrap;html=1;fillColor=#f5f5f5;fontColor=#333333;strokeColor=#666666;" parent="L6SBvmUNMrdH3GEFA7w_-1" vertex="1">
          <mxGeometry x="1785.75" y="1708" width="120" height="70" as="geometry" />
        </mxCell>
        <mxCell id="L6SBvmUNMrdH3GEFA7w_-140" value="rms-bff:latest" style="shape=image;html=1;verticalAlign=top;verticalLabelPosition=bottom;labelBackgroundColor=#ffffff;imageAspect=0;aspect=fixed;image=https://cdn1.iconfinder.com/data/icons/unicons-line-vol-3/24/docker-128.png" parent="L6SBvmUNMrdH3GEFA7w_-1" vertex="1">
          <mxGeometry x="1826.75" y="1716" width="38" height="38" as="geometry" />
        </mxCell>
        <mxCell id="L6SBvmUNMrdH3GEFA7w_-141" value="" style="aspect=fixed;sketch=0;html=1;dashed=0;whitespace=wrap;fillColor=#2875E2;strokeColor=#ffffff;points=[[0.005,0.63,0],[0.1,0.2,0],[0.9,0.2,0],[0.5,0,0],[0.995,0.63,0],[0.72,0.99,0],[0.5,1,0],[0.28,0.99,0]];shape=mxgraph.kubernetes.icon2;kubernetesLabel=1;prIcon=pod;labelPosition=center;verticalLabelPosition=bottom;align=center;verticalAlign=top;" parent="L6SBvmUNMrdH3GEFA7w_-1" vertex="1">
          <mxGeometry x="1764.25" y="1678" width="50" height="48" as="geometry" />
        </mxCell>
        <mxCell id="L6SBvmUNMrdH3GEFA7w_-142" value="EC2 Instance" style="sketch=0;points=[[0,0,0],[0.25,0,0],[0.5,0,0],[0.75,0,0],[1,0,0],[0,1,0],[0.25,1,0],[0.5,1,0],[0.75,1,0],[1,1,0],[0,0.25,0],[0,0.5,0],[0,0.75,0],[1,0.25,0],[1,0.5,0],[1,0.75,0]];outlineConnect=0;fontColor=#232F3E;fillColor=#ED7100;strokeColor=#ffffff;dashed=0;verticalLabelPosition=bottom;verticalAlign=top;align=center;html=1;fontSize=12;fontStyle=0;aspect=fixed;shape=mxgraph.aws4.resourceIcon;resIcon=mxgraph.aws4.ec2;" parent="L6SBvmUNMrdH3GEFA7w_-1" vertex="1">
          <mxGeometry x="1824.75" y="1300" width="42" height="42" as="geometry" />
        </mxCell>
        <mxCell id="L6SBvmUNMrdH3GEFA7w_-143" value="" style="aspect=fixed;sketch=0;html=1;dashed=0;whitespace=wrap;fillColor=#2875E2;strokeColor=#ffffff;points=[[0.005,0.63,0],[0.1,0.2,0],[0.9,0.2,0],[0.5,0,0],[0.995,0.63,0],[0.72,0.99,0],[0.5,1,0],[0.28,0.99,0]];shape=mxgraph.kubernetes.icon2;kubernetesLabel=1;prIcon=pod;labelPosition=center;verticalLabelPosition=bottom;align=center;verticalAlign=top;" parent="L6SBvmUNMrdH3GEFA7w_-1" vertex="1">
          <mxGeometry x="1764.25" y="1444" width="50" height="48" as="geometry" />
        </mxCell>
        <mxCell id="L6SBvmUNMrdH3GEFA7w_-144" style="edgeStyle=orthogonalEdgeStyle;rounded=0;orthogonalLoop=1;jettySize=auto;html=1;exitX=0.995;exitY=0.63;exitDx=0;exitDy=0;exitPerimeter=0;entryX=0.5;entryY=1;entryDx=0;entryDy=0;entryPerimeter=0;" parent="L6SBvmUNMrdH3GEFA7w_-1" source="L6SBvmUNMrdH3GEFA7w_-17" target="L6SBvmUNMrdH3GEFA7w_-117" edge="1">
          <mxGeometry relative="1" as="geometry">
            <Array as="points">
              <mxPoint x="970" y="1626" />
              <mxPoint x="970" y="2000" />
              <mxPoint x="1445" y="2000" />
            </Array>
          </mxGeometry>
        </mxCell>
        <mxCell id="L6SBvmUNMrdH3GEFA7w_-145" style="edgeStyle=orthogonalEdgeStyle;rounded=0;orthogonalLoop=1;jettySize=auto;html=1;exitX=0.995;exitY=0.63;exitDx=0;exitDy=0;exitPerimeter=0;entryX=0.5;entryY=1;entryDx=0;entryDy=0;entryPerimeter=0;" parent="L6SBvmUNMrdH3GEFA7w_-1" source="L6SBvmUNMrdH3GEFA7w_-17" target="L6SBvmUNMrdH3GEFA7w_-131" edge="1">
          <mxGeometry relative="1" as="geometry">
            <Array as="points">
              <mxPoint x="970" y="1626" />
              <mxPoint x="970" y="2000" />
              <mxPoint x="1775" y="2000" />
            </Array>
          </mxGeometry>
        </mxCell>
        <mxCell id="L6SBvmUNMrdH3GEFA7w_-153" value="Node" style="aspect=fixed;sketch=0;html=1;dashed=0;whitespace=wrap;fillColor=#2875E2;strokeColor=#ffffff;points=[[0.005,0.63,0],[0.1,0.2,0],[0.9,0.2,0],[0.5,0,0],[0.995,0.63,0],[0.72,0.99,0],[0.5,1,0],[0.28,0.99,0]];shape=mxgraph.kubernetes.icon2;prIcon=node;labelPosition=center;verticalLabelPosition=bottom;align=center;verticalAlign=top;" parent="L6SBvmUNMrdH3GEFA7w_-1" vertex="1">
          <mxGeometry x="1480" y="1380" width="50" height="48" as="geometry" />
        </mxCell>
        <mxCell id="L6SBvmUNMrdH3GEFA7w_-155" value="Node" style="aspect=fixed;sketch=0;html=1;dashed=0;whitespace=wrap;fillColor=#2875E2;strokeColor=#ffffff;points=[[0.005,0.63,0],[0.1,0.2,0],[0.9,0.2,0],[0.5,0,0],[0.995,0.63,0],[0.72,0.99,0],[0.5,1,0],[0.28,0.99,0]];shape=mxgraph.kubernetes.icon2;prIcon=node;labelPosition=center;verticalLabelPosition=bottom;align=center;verticalAlign=top;" parent="L6SBvmUNMrdH3GEFA7w_-1" vertex="1">
          <mxGeometry x="1810.75" y="1380" width="50" height="48" as="geometry" />
        </mxCell>
        <mxCell id="L6SBvmUNMrdH3GEFA7w_-117" value="" style="aspect=fixed;sketch=0;html=1;dashed=0;whitespace=wrap;fillColor=#2875E2;strokeColor=#ffffff;points=[[0.005,0.63,0],[0.1,0.2,0],[0.9,0.2,0],[0.5,0,0],[0.995,0.63,0],[0.72,0.99,0],[0.5,1,0],[0.28,0.99,0]];shape=mxgraph.kubernetes.icon2;kubernetesLabel=1;prIcon=kubelet" parent="L6SBvmUNMrdH3GEFA7w_-1" vertex="1">
          <mxGeometry x="1420" y="1810" width="50" height="48" as="geometry" />
        </mxCell>
        <mxCell id="L6SBvmUNMrdH3GEFA7w_-118" value="" style="aspect=fixed;sketch=0;html=1;dashed=0;whitespace=wrap;fillColor=#2875E2;strokeColor=#ffffff;points=[[0.005,0.63,0],[0.1,0.2,0],[0.9,0.2,0],[0.5,0,0],[0.995,0.63,0],[0.72,0.99,0],[0.5,1,0],[0.28,0.99,0]];shape=mxgraph.kubernetes.icon2;kubernetesLabel=1;prIcon=k_proxy" parent="L6SBvmUNMrdH3GEFA7w_-1" vertex="1">
          <mxGeometry x="1485" y="1810" width="50" height="48" as="geometry" />
        </mxCell>
        <mxCell id="L6SBvmUNMrdH3GEFA7w_-119" value="containerd" style="shape=image;html=1;verticalAlign=top;verticalLabelPosition=bottom;labelBackgroundColor=#ffffff;imageAspect=0;aspect=fixed;image=https://cdn1.iconfinder.com/data/icons/unicons-line-vol-3/24/docker-128.png" parent="L6SBvmUNMrdH3GEFA7w_-1" vertex="1">
          <mxGeometry x="1550" y="1818" width="40" height="40" as="geometry" />
        </mxCell>
        <mxCell id="L6SBvmUNMrdH3GEFA7w_-131" value="" style="aspect=fixed;sketch=0;html=1;dashed=0;whitespace=wrap;fillColor=#2875E2;strokeColor=#ffffff;points=[[0.005,0.63,0],[0.1,0.2,0],[0.9,0.2,0],[0.5,0,0],[0.995,0.63,0],[0.72,0.99,0],[0.5,1,0],[0.28,0.99,0]];shape=mxgraph.kubernetes.icon2;kubernetesLabel=1;prIcon=kubelet" parent="L6SBvmUNMrdH3GEFA7w_-1" vertex="1">
          <mxGeometry x="1750" y="1814" width="50" height="48" as="geometry" />
        </mxCell>
        <mxCell id="L6SBvmUNMrdH3GEFA7w_-132" value="" style="aspect=fixed;sketch=0;html=1;dashed=0;whitespace=wrap;fillColor=#2875E2;strokeColor=#ffffff;points=[[0.005,0.63,0],[0.1,0.2,0],[0.9,0.2,0],[0.5,0,0],[0.995,0.63,0],[0.72,0.99,0],[0.5,1,0],[0.28,0.99,0]];shape=mxgraph.kubernetes.icon2;kubernetesLabel=1;prIcon=k_proxy" parent="L6SBvmUNMrdH3GEFA7w_-1" vertex="1">
          <mxGeometry x="1815.75" y="1814" width="50" height="48" as="geometry" />
        </mxCell>
        <mxCell id="L6SBvmUNMrdH3GEFA7w_-133" value="containerd" style="shape=image;html=1;verticalAlign=top;verticalLabelPosition=bottom;labelBackgroundColor=#ffffff;imageAspect=0;aspect=fixed;image=https://cdn1.iconfinder.com/data/icons/unicons-line-vol-3/24/docker-128.png" parent="L6SBvmUNMrdH3GEFA7w_-1" vertex="1">
          <mxGeometry x="1880" y="1822" width="40" height="40" as="geometry" />
        </mxCell>
        <mxCell id="L6SBvmUNMrdH3GEFA7w_-147" style="edgeStyle=orthogonalEdgeStyle;rounded=0;orthogonalLoop=1;jettySize=auto;html=1;fillColor=#fff2cc;strokeColor=#d6b656;entryX=0;entryY=0.5;entryDx=0;entryDy=0;" parent="L6SBvmUNMrdH3GEFA7w_-1" source="L6SBvmUNMrdH3GEFA7w_-119" target="L6SBvmUNMrdH3GEFA7w_-146" edge="1">
          <mxGeometry relative="1" as="geometry">
            <mxPoint x="2280" y="1960" as="targetPoint" />
            <Array as="points">
              <mxPoint x="1570" y="1940" />
              <mxPoint x="2280" y="1940" />
            </Array>
          </mxGeometry>
        </mxCell>
        <mxCell id="L6SBvmUNMrdH3GEFA7w_-148" style="edgeStyle=orthogonalEdgeStyle;rounded=0;orthogonalLoop=1;jettySize=auto;html=1;entryX=0;entryY=0.5;entryDx=0;entryDy=0;fillColor=#fff2cc;strokeColor=#d6b656;" parent="L6SBvmUNMrdH3GEFA7w_-1" source="L6SBvmUNMrdH3GEFA7w_-133" target="L6SBvmUNMrdH3GEFA7w_-146" edge="1">
          <mxGeometry relative="1" as="geometry">
            <Array as="points">
              <mxPoint x="1900" y="1940" />
              <mxPoint x="2280" y="1940" />
            </Array>
          </mxGeometry>
        </mxCell>
        <mxCell id="L6SBvmUNMrdH3GEFA7w_-157" style="edgeStyle=orthogonalEdgeStyle;rounded=0;orthogonalLoop=1;jettySize=auto;html=1;exitX=0.995;exitY=0.63;exitDx=0;exitDy=0;exitPerimeter=0;entryX=0.5;entryY=1;entryDx=0;entryDy=0;entryPerimeter=0;" parent="L6SBvmUNMrdH3GEFA7w_-1" source="L6SBvmUNMrdH3GEFA7w_-17" target="L6SBvmUNMrdH3GEFA7w_-118" edge="1">
          <mxGeometry relative="1" as="geometry">
            <Array as="points">
              <mxPoint x="970" y="1626" />
              <mxPoint x="970" y="2000" />
              <mxPoint x="1510" y="2000" />
            </Array>
          </mxGeometry>
        </mxCell>
        <mxCell id="L6SBvmUNMrdH3GEFA7w_-158" style="edgeStyle=orthogonalEdgeStyle;rounded=0;orthogonalLoop=1;jettySize=auto;html=1;exitX=0.995;exitY=0.63;exitDx=0;exitDy=0;exitPerimeter=0;entryX=0.5;entryY=1;entryDx=0;entryDy=0;entryPerimeter=0;" parent="L6SBvmUNMrdH3GEFA7w_-1" source="L6SBvmUNMrdH3GEFA7w_-17" target="L6SBvmUNMrdH3GEFA7w_-132" edge="1">
          <mxGeometry relative="1" as="geometry">
            <Array as="points">
              <mxPoint x="970" y="1626" />
              <mxPoint x="970" y="2000" />
              <mxPoint x="1841" y="2000" />
            </Array>
          </mxGeometry>
        </mxCell>
        <mxCell id="L6SBvmUNMrdH3GEFA7w_-23" value="etcd" style="aspect=fixed;sketch=0;html=1;dashed=0;whitespace=wrap;fillColor=#2875E2;strokeColor=#ffffff;points=[[0.005,0.63,0],[0.1,0.2,0],[0.9,0.2,0],[0.5,0,0],[0.995,0.63,0],[0.72,0.99,0],[0.5,1,0],[0.28,0.99,0]];shape=mxgraph.kubernetes.icon2;kubernetesLabel=1;prIcon=etcd;labelPosition=center;verticalLabelPosition=bottom;align=center;verticalAlign=top;" parent="L6SBvmUNMrdH3GEFA7w_-1" vertex="1">
          <mxGeometry x="630" y="1730" width="50" height="48" as="geometry" />
        </mxCell>
        <mxCell id="L6SBvmUNMrdH3GEFA7w_-59" value="" style="endArrow=classic;html=1;rounded=0;entryX=0.9;entryY=0.2;entryDx=0;entryDy=0;entryPerimeter=0;exitX=0.28;exitY=0.99;exitDx=0;exitDy=0;exitPerimeter=0;" parent="L6SBvmUNMrdH3GEFA7w_-1" source="L6SBvmUNMrdH3GEFA7w_-17" target="L6SBvmUNMrdH3GEFA7w_-23" edge="1">
          <mxGeometry width="50" height="50" relative="1" as="geometry">
            <mxPoint x="1130" y="1740" as="sourcePoint" />
            <mxPoint x="1180" y="1690" as="targetPoint" />
          </mxGeometry>
        </mxCell>
        <mxCell id="L6SBvmUNMrdH3GEFA7w_-164" value="" style="rounded=0;whiteSpace=wrap;html=1;fillColor=#f5f5f5;fontColor=#333333;strokeColor=#666666;" parent="L6SBvmUNMrdH3GEFA7w_-1" vertex="1">
          <mxGeometry x="1025" y="458" width="120" height="70" as="geometry" />
        </mxCell>
        <mxCell id="L6SBvmUNMrdH3GEFA7w_-165" value="rms-bff:latest" style="shape=image;html=1;verticalAlign=top;verticalLabelPosition=bottom;labelBackgroundColor=#ffffff;imageAspect=0;aspect=fixed;image=https://cdn1.iconfinder.com/data/icons/unicons-line-vol-3/24/docker-128.png" parent="L6SBvmUNMrdH3GEFA7w_-1" vertex="1">
          <mxGeometry x="1066" y="468" width="38" height="38" as="geometry" />
        </mxCell>
        <mxCell id="L6SBvmUNMrdH3GEFA7w_-70" value="" style="aspect=fixed;sketch=0;html=1;dashed=0;whitespace=wrap;fillColor=#2875E2;strokeColor=#ffffff;points=[[0.005,0.63,0],[0.1,0.2,0],[0.9,0.2,0],[0.5,0,0],[0.995,0.63,0],[0.72,0.99,0],[0.5,1,0],[0.28,0.99,0]];shape=mxgraph.kubernetes.icon2;kubernetesLabel=1;prIcon=pod;labelPosition=center;verticalLabelPosition=bottom;align=center;verticalAlign=top;" parent="L6SBvmUNMrdH3GEFA7w_-1" vertex="1">
          <mxGeometry x="1060" y="420" width="50" height="48" as="geometry" />
        </mxCell>
        <mxCell id="L6SBvmUNMrdH3GEFA7w_-96" style="edgeStyle=orthogonalEdgeStyle;rounded=0;orthogonalLoop=1;jettySize=auto;html=1;exitX=0.995;exitY=0.63;exitDx=0;exitDy=0;exitPerimeter=0;entryX=0;entryY=0.5;entryDx=0;entryDy=0;entryPerimeter=0;" parent="L6SBvmUNMrdH3GEFA7w_-1" source="L6SBvmUNMrdH3GEFA7w_-70" target="L6SBvmUNMrdH3GEFA7w_-28" edge="1">
          <mxGeometry relative="1" as="geometry">
            <Array as="points">
              <mxPoint x="1860" y="450" />
              <mxPoint x="1860" y="580" />
            </Array>
          </mxGeometry>
        </mxCell>
        <mxCell id="L6SBvmUNMrdH3GEFA7w_-97" style="edgeStyle=orthogonalEdgeStyle;rounded=0;orthogonalLoop=1;jettySize=auto;html=1;exitX=0.995;exitY=0.63;exitDx=0;exitDy=0;exitPerimeter=0;entryX=0;entryY=0.5;entryDx=0;entryDy=0;entryPerimeter=0;" parent="L6SBvmUNMrdH3GEFA7w_-1" source="L6SBvmUNMrdH3GEFA7w_-11" target="L6SBvmUNMrdH3GEFA7w_-28" edge="1">
          <mxGeometry relative="1" as="geometry" />
        </mxCell>
        <mxCell id="L6SBvmUNMrdH3GEFA7w_-99" style="edgeStyle=orthogonalEdgeStyle;rounded=0;orthogonalLoop=1;jettySize=auto;html=1;exitX=0.995;exitY=0.63;exitDx=0;exitDy=0;exitPerimeter=0;entryX=0;entryY=0.5;entryDx=0;entryDy=0;entryPerimeter=0;" parent="L6SBvmUNMrdH3GEFA7w_-1" source="L6SBvmUNMrdH3GEFA7w_-69" target="L6SBvmUNMrdH3GEFA7w_-28" edge="1">
          <mxGeometry relative="1" as="geometry">
            <Array as="points">
              <mxPoint x="1860" y="720" />
              <mxPoint x="1860" y="580" />
            </Array>
          </mxGeometry>
        </mxCell>
        <mxCell id="L6SBvmUNMrdH3GEFA7w_-166" value="" style="rounded=0;whiteSpace=wrap;html=1;fillColor=#f5f5f5;fontColor=#333333;strokeColor=#666666;" parent="L6SBvmUNMrdH3GEFA7w_-1" vertex="1">
          <mxGeometry x="1030.5" y="590" width="120" height="70" as="geometry" />
        </mxCell>
        <mxCell id="L6SBvmUNMrdH3GEFA7w_-167" value="rms-bff:latest" style="shape=image;html=1;verticalAlign=top;verticalLabelPosition=bottom;labelBackgroundColor=#ffffff;imageAspect=0;aspect=fixed;image=https://cdn1.iconfinder.com/data/icons/unicons-line-vol-3/24/docker-128.png" parent="L6SBvmUNMrdH3GEFA7w_-1" vertex="1">
          <mxGeometry x="1071.5" y="600" width="38" height="38" as="geometry" />
        </mxCell>
        <mxCell id="L6SBvmUNMrdH3GEFA7w_-11" value="" style="aspect=fixed;sketch=0;html=1;dashed=0;whitespace=wrap;fillColor=#2875E2;strokeColor=#ffffff;points=[[0.005,0.63,0],[0.1,0.2,0],[0.9,0.2,0],[0.5,0,0],[0.995,0.63,0],[0.72,0.99,0],[0.5,1,0],[0.28,0.99,0]];shape=mxgraph.kubernetes.icon2;kubernetesLabel=1;prIcon=pod;labelPosition=center;verticalLabelPosition=bottom;align=center;verticalAlign=top;" parent="L6SBvmUNMrdH3GEFA7w_-1" vertex="1">
          <mxGeometry x="1065.5" y="550" width="50" height="48" as="geometry" />
        </mxCell>
        <mxCell id="L6SBvmUNMrdH3GEFA7w_-168" value="" style="rounded=0;whiteSpace=wrap;html=1;fillColor=#f5f5f5;fontColor=#333333;strokeColor=#666666;" parent="L6SBvmUNMrdH3GEFA7w_-1" vertex="1">
          <mxGeometry x="1025.25" y="730" width="120" height="70" as="geometry" />
        </mxCell>
        <mxCell id="L6SBvmUNMrdH3GEFA7w_-169" value="rms-bff:latest" style="shape=image;html=1;verticalAlign=top;verticalLabelPosition=bottom;labelBackgroundColor=#ffffff;imageAspect=0;aspect=fixed;image=https://cdn1.iconfinder.com/data/icons/unicons-line-vol-3/24/docker-128.png" parent="L6SBvmUNMrdH3GEFA7w_-1" vertex="1">
          <mxGeometry x="1066.25" y="740" width="38" height="38" as="geometry" />
        </mxCell>
        <mxCell id="L6SBvmUNMrdH3GEFA7w_-69" value="" style="aspect=fixed;sketch=0;html=1;dashed=0;whitespace=wrap;fillColor=#2875E2;strokeColor=#ffffff;points=[[0.005,0.63,0],[0.1,0.2,0],[0.9,0.2,0],[0.5,0,0],[0.995,0.63,0],[0.72,0.99,0],[0.5,1,0],[0.28,0.99,0]];shape=mxgraph.kubernetes.icon2;kubernetesLabel=1;prIcon=pod;labelPosition=center;verticalLabelPosition=bottom;align=center;verticalAlign=top;" parent="L6SBvmUNMrdH3GEFA7w_-1" vertex="1">
          <mxGeometry x="1060.25" y="690" width="50" height="48" as="geometry" />
        </mxCell>
        <mxCell id="94TOJgzLUkNtwb4Dzyfh-5" value="Node Group" style="points=[[0,0],[0.25,0],[0.5,0],[0.75,0],[1,0],[1,0.25],[1,0.5],[1,0.75],[1,1],[0.75,1],[0.5,1],[0.25,1],[0,1],[0,0.75],[0,0.5],[0,0.25]];outlineConnect=0;gradientColor=none;html=1;whiteSpace=wrap;fontSize=12;fontStyle=0;container=1;pointerEvents=0;collapsible=0;recursiveResize=0;shape=mxgraph.aws4.group;grIcon=mxgraph.aws4.group_ec2_instance_contents;strokeColor=#D86613;fillColor=none;verticalAlign=top;align=left;spacingLeft=30;fontColor=#D86613;dashed=0;" parent="L6SBvmUNMrdH3GEFA7w_-1" vertex="1">
          <mxGeometry x="990" y="1200" width="1050" height="770" as="geometry" />
        </mxCell>
        <mxCell id="L6SBvmUNMrdH3GEFA7w_-7" value="Public Internet" style="html=1;verticalLabelPosition=bottom;align=center;labelBackgroundColor=#ffffff;verticalAlign=top;strokeWidth=2;strokeColor=#0080F0;shadow=0;dashed=0;shape=mxgraph.ios7.icons.globe;" parent="1" vertex="1">
          <mxGeometry x="-720" y="600" width="40" height="40" as="geometry" />
        </mxCell>
        <mxCell id="L6SBvmUNMrdH3GEFA7w_-8" style="edgeStyle=orthogonalEdgeStyle;rounded=0;orthogonalLoop=1;jettySize=auto;html=1;" parent="1" source="L6SBvmUNMrdH3GEFA7w_-7" target="L6SBvmUNMrdH3GEFA7w_-4" edge="1">
          <mxGeometry relative="1" as="geometry" />
        </mxCell>
        <mxCell id="L6SBvmUNMrdH3GEFA7w_-104" value="Cliente" style="shape=umlActor;verticalLabelPosition=bottom;verticalAlign=top;html=1;outlineConnect=0;" parent="1" vertex="1">
          <mxGeometry x="-715" y="220" width="30" height="60" as="geometry" />
        </mxCell>
        <mxCell id="L6SBvmUNMrdH3GEFA7w_-170" value="&lt;div style=&quot;font-size: 20px;&quot;&gt;DIAGRAMA DE ARQUITETURA CLOUD&lt;br&gt;&lt;/div&gt;&lt;font style=&quot;font-size: 20px;&quot;&gt;&lt;font style=&quot;font-size: 20px;&quot;&gt;Ambiente de ProduÃ§Ã£o&lt;/font&gt;&lt;br&gt;&lt;/font&gt;" style="text;html=1;strokeColor=none;fillColor=none;align=left;verticalAlign=top;whiteSpace=wrap;rounded=0;spacing=2;fontFamily=Lucida Console;labelBorderColor=none;shadow=1;glass=0;" parent="1" vertex="1">
          <mxGeometry x="-760" y="40" width="260" height="80" as="geometry" />
        </mxCell>
        <mxCell id="L6SBvmUNMrdH3GEFA7w_-173" value="Optamos por utilizar o Amazon RDS como banco de dados." style="text;html=1;strokeColor=none;fillColor=none;align=left;verticalAlign=top;whiteSpace=wrap;rounded=0;fontFamily=Lucida Console;" parent="1" vertex="1">
          <mxGeometry x="-760" y="120" width="240" height="40" as="geometry" />
        </mxCell>
        <mxCell id="L6SBvmUNMrdH3GEFA7w_-178" style="edgeStyle=orthogonalEdgeStyle;rounded=0;orthogonalLoop=1;jettySize=auto;html=1;exitX=0.5;exitY=1;exitDx=0;exitDy=0;exitPerimeter=0;" parent="1" source="L6SBvmUNMrdH3GEFA7w_-174" edge="1">
          <mxGeometry relative="1" as="geometry">
            <mxPoint x="-700" y="470" as="targetPoint" />
          </mxGeometry>
        </mxCell>
        <mxCell id="L6SBvmUNMrdH3GEFA7w_-174" value="Totem de autoatendimento" style="shape=mxgraph.signs.healthcare.pharmacy;html=1;pointerEvents=1;fillColor=#000000;strokeColor=none;verticalLabelPosition=bottom;verticalAlign=top;align=center;sketch=0;" parent="1" vertex="1">
          <mxGeometry x="-716.5" y="400" width="33" height="61.02" as="geometry" />
        </mxCell>
        <mxCell id="L6SBvmUNMrdH3GEFA7w_-176" style="edgeStyle=orthogonalEdgeStyle;rounded=0;orthogonalLoop=1;jettySize=auto;html=1;entryX=0.492;entryY=0.05;entryDx=0;entryDy=0;entryPerimeter=0;" parent="1" source="L6SBvmUNMrdH3GEFA7w_-174" target="L6SBvmUNMrdH3GEFA7w_-7" edge="1">
          <mxGeometry relative="1" as="geometry" />
        </mxCell>
        <mxCell id="L6SBvmUNMrdH3GEFA7w_-177" style="edgeStyle=orthogonalEdgeStyle;rounded=0;orthogonalLoop=1;jettySize=auto;html=1;entryX=0.5;entryY=0;entryDx=0;entryDy=0;entryPerimeter=0;" parent="1" source="L6SBvmUNMrdH3GEFA7w_-104" target="L6SBvmUNMrdH3GEFA7w_-174" edge="1">
          <mxGeometry relative="1" as="geometry" />
        </mxCell>
      </root>
    </mxGraphModel>
  </diagram>
</mxfile>
